<svg id="Capa_1" enable-background="new 0 0 512 512" height="512" viewBox="0 0 512 512" width="512" xmlns="http://www.w3.org/2000/svg"><g><path d="m420 190.743c0 9.442-4.816 18.336-6.416 27.352-1.635 9.212-.199 19.193-3.242 27.904-3.072 8.795-10.446 15.75-14.68 23.975-4.267 8.288-5.634 18.299-10.803 25.947-5.245 7.762-14.062 12.786-19.944 19.826-6.061 7.253-9.446 16.793-15.868 23.212-6.782 6.779-16.372 10.143-23.189 15.912l-43.211 28.308c-16.182 10.601-37.11 10.601-53.292 0l-43.209-28.306c-6.818-5.768-16.407-9.132-23.189-15.911-6.422-6.419-9.807-15.958-15.868-23.211-5.883-7.04-14.699-12.064-19.944-19.825-5.169-7.648-6.536-17.659-10.803-25.948-4.235-8.225-11.609-15.181-14.681-23.976-3.043-8.711-1.607-18.692-3.243-27.905-1.602-9.017-6.418-17.912-6.418-27.354 0-9.143 4.572-17.865 5.739-26.644 1.203-9.044-.892-18.661 1.459-27.217 2.414-8.784 9.157-15.965 12.682-24.123 3.608-8.351 4.246-18.179 8.911-25.756 4.763-7.736 13.268-12.708 19.02-19.511 5.857-6.926 9.376-16.132 16.139-21.957 6.855-5.905 16.475-7.996 24.135-12.63 7.708-4.663 14.045-12.21 22.442-15.444 8.353-3.217 18.096-1.874 27.005-3.535 8.729-1.629 17.328-6.426 26.468-6.426 9.141 0 17.739 4.797 26.467 6.425 8.908 1.661 18.652.319 27.005 3.536 8.396 3.234 14.734 10.781 22.442 15.444 7.661 4.634 17.281 6.725 24.135 12.63 6.763 5.826 10.282 15.031 16.138 21.957 5.753 6.803 14.257 11.775 19.02 19.511 4.665 7.577 5.303 17.405 8.911 25.755 3.525 8.158 10.268 15.339 12.682 24.123 2.351 8.556.256 18.173 1.459 27.217 1.169 8.779 5.741 17.502 5.741 26.645z" fill="#f6e7c6"/><path d="m414.26 164.098c-1.203-9.044.892-18.661-1.459-27.217-2.414-8.783-9.157-15.964-12.682-24.123-3.607-8.35-4.246-18.178-8.911-25.755-4.763-7.736-13.267-12.708-19.02-19.511-5.857-6.926-9.376-16.132-16.138-21.957-6.855-5.905-16.475-7.996-24.135-12.63-7.708-4.663-14.045-12.21-22.442-15.444-4.227-1.628-8.811-2.088-13.462-2.361 6.787 3.27 14.362 5.544 20.039 10.435 6.763 5.826 10.281 15.031 16.138 21.957 5.753 6.803 14.257 11.775 19.02 19.511 4.665 7.577 5.303 17.405 8.911 25.755 3.525 8.158 10.268 15.339 12.682 24.123 2.351 8.556.256 18.173 1.459 27.217 1.168 8.78 5.74 17.502 5.74 26.645 0 9.442-4.816 18.336-6.416 27.352-1.635 9.212-.199 19.193-3.242 27.904-3.072 8.795-10.446 15.75-14.68 23.975-4.267 8.288-5.634 18.299-10.803 25.947-5.245 7.762-14.062 12.786-19.944 19.826-6.061 7.253-9.446 16.793-15.868 23.212-6.782 6.779-16.372 10.143-23.189 15.912l-43.211 28.308c-9.698 6.353-21.1 8.899-32.164 7.637l18.872 12.363c16.182 10.601 37.11 10.601 53.292 0l43.211-28.308c6.818-5.768 16.407-9.133 23.189-15.912 6.422-6.419 9.807-15.958 15.868-23.212 5.883-7.04 14.699-12.064 19.944-19.826 5.169-7.648 6.535-17.659 10.803-25.947 4.235-8.224 11.608-15.18 14.68-23.975 3.043-8.711 1.607-18.692 3.242-27.904 1.601-9.016 6.416-17.911 6.416-27.352 0-9.143-4.572-17.866-5.74-26.645z" fill="#f4d8a5"/><path d="m255.715 391.127c.19.001.38.001.57 0 2.545-40.311 22.011-77.651 53.204-103.805-17.629 14.78-39.516 23.484-53.49 23.484s-35.861-8.703-53.49-23.484c31.195 26.154 50.661 63.495 53.206 103.805z" fill="#f4d8a5"/><path d="m265.801 348.009-15.988 10.474c3.192 10.537 5.197 21.477 5.902 32.645.19.001.38.001.57 0 .942-14.919 4.202-29.431 9.516-43.119z" fill="#f1cb86"/><path d="m461.154 427.931c-10.74-51.39-37.508-97.686-75.976-132.496-.105.163-.211.325-.32.485-5.245 7.762-14.062 12.786-19.944 19.826-6.061 7.253-9.446 16.793-15.868 23.212-6.782 6.779-16.372 10.143-23.189 15.912l-43.211 28.308c-16.182 10.601-37.11 10.601-53.292 0l-43.209-28.306c-6.818-5.768-16.407-9.132-23.189-15.911-6.422-6.418-9.807-15.958-15.868-23.211-5.883-7.04-14.699-12.064-19.944-19.825-.109-.162-.216-.325-.322-.489-38.468 34.809-65.236 81.106-75.976 132.496l-15.626 74.768c-.194.928.514 1.8 1.462 1.8h438.636c.948 0 1.656-.872 1.462-1.8z" fill="#8b5e5e"/><path d="m476.78 502.7-15.626-74.769c-10.74-51.39-37.508-97.686-75.976-132.495-.105.163-.211.325-.32.485-2.821 4.174-6.674 7.556-10.549 10.886 22.912 29.427 39.074 63.942 46.844 101.124l6.22 29.762c5.044 24.137-13.378 46.807-38.036 46.807h-350.313l-3.804 18.2c-.194.928.514 1.8 1.462 1.8h438.636c.948 0 1.656-.872 1.462-1.8z" fill="#785252"/><path d="m300.603 105.214c0 24.874 9.881 48.729 27.47 66.318l13.567 13.568 2.058-27.947c1.031-14.001-1.265-27.432-6.197-39.55-7.902-1.977-17.064-1.046-24.124-3.895-4.598-1.856-8.688-5.253-12.774-8.494z" fill="#4d5961"/><path d="m300.603 105.213v.001z" fill="#93d8e4"/><path d="m328.073 171.532c-17.589-17.589-27.47-41.444-27.47-66.318l-13.048 13.048c-24.98 24.98-58.861 39.014-94.188 39.014h-25.056l5.97 81.064c3.152 42.803 55.921 72.466 81.719 72.466s78.566-29.663 81.719-72.466l3.921-53.24z" fill="#ffcbbe"/><path d="m328.073 171.532c-17.589-17.589-27.47-41.444-27.47-66.318l-13.048 13.048c-4.683 4.684-9.68 8.982-14.94 12.876 4.16 7.409 9.343 14.281 15.457 20.395l1.331 1.331c7.77 7.77 11.773 18.537 10.966 29.496l-2.65 35.981c-3.152 42.803-55.921 72.466-81.719 72.466-3.257 0-6.945-.473-10.908-1.386 17.142 13.503 37.609 21.386 50.908 21.386 25.798 0 78.566-29.663 81.719-72.466l3.921-53.24z" fill="#eaac9d"/><path d="m287.555 118.262 13.048-13.048v-.001c-4.401-3.492-8.797-6.805-13.818-7.818-9.968-2.013-20.771 4.87-30.786 4.871-10.015 0-20.818-6.883-30.786-4.87-9.682 1.955-17.04 12.459-26.59 16.312-7.059 2.849-16.221 1.917-24.123 3.894-4.932 12.118-7.228 25.549-6.197 39.55l.009.124h25.056c35.326 0 69.207-14.034 94.187-39.014z" fill="#5e6b75"/><path d="m36.682 512h438.636c5.699 0 9.973-5.241 8.804-10.834l-15.626-74.77c-10.673-51.067-36.202-96.764-73.965-132.523 3.187-6.998 4.829-14.697 7.799-20.466 3.944-7.661 11.541-14.765 15.093-24.935 3.545-10.151 2.008-20.403 3.545-29.065.422-2.374 1.133-4.807 1.773-6.873 1.225-3.957-.989-8.158-4.946-9.383-3.959-1.229-8.158.989-9.383 4.945-.777 2.509-1.647 5.503-2.213 8.688-1.723 9.71-.398 19.471-2.938 26.74-2.581 7.39-9.743 14.226-14.268 23.016-4.515 8.769-5.893 18.401-10.275 25.069-2.467 3.697-6.333 6.965-9.804 9.945-8.974 7.708-11.274 10.37-17.58 21.145-6.236 10.651-7.72 12.314-19.049 18.936-3.679 2.15-7.479 4.372-10.902 7.201l-42.846 28.068c-4.322 2.831-9.043 4.768-13.911 5.812 1.259-9.721 3.569-19.305 6.899-28.596 1.397-3.899-.631-8.193-4.531-9.591-3.899-1.399-8.193.633-9.59 4.53-.498 1.389-.974 2.782-1.431 4.183-4.404-13.433-10.666-26.278-18.581-38.135 13.597 4.225 23.515 4.243 37.131.027-.362.541-.72 1.084-1.075 1.629-2.26 3.472-1.277 8.118 2.194 10.377 3.458 2.253 8.109 1.29 10.377-2.193 7.705-11.836 17.146-22.495 28.064-31.688 18.671-15.557 29.667-34.699 31.116-54.369 1.147-15.579 4.844-65.775 5.979-81.188.429-5.822.34-11.585-.263-17.264 2.31 3.343 4.965 6.725 8.336 9.454 3.204 2.594 7.931 2.122 10.548-1.111 2.606-3.22 2.108-7.942-1.111-10.549-2.852-2.309-5.246-5.97-7.779-9.846-6.007-9.191-10.563-15.252-21.423-18.017-3.595-.991-8.719-1.432-12.033-1.715-10.906-.93-12.179-1.35-21.294-8.606-5.437-4.328-10.938-8.602-17.889-10.006-7.436-1.5-14.63.577-20.978 2.411-10.632 3.071-11.928 3.078-22.585 0-6.348-1.834-13.54-3.911-20.978-2.41-7.13 1.438-12.846 5.99-17.89 10.006-9.057 7.211-10.313 7.669-21.292 8.605-3.312.282-8.524.733-12.066 1.723-10.823 2.766-15.382 8.816-21.39 18.008-2.534 3.877-4.927 7.538-7.78 9.847-3.219 2.606-3.717 7.329-1.111 10.549 2.605 3.22 7.329 3.716 10.548 1.111 3.371-2.729 6.027-6.112 8.337-9.455-.612 5.768-.689 11.627-.254 17.387.018.105.734 9.965 5.97 81.066 1.449 19.673 12.448 38.819 31.125 54.377 27.258 22.953 44.959 55.147 49.443 89.448-4.866-1.044-9.585-2.981-13.905-5.811l-42.844-28.067c-7.247-5.987-16.675-9.498-22.361-15.181-5.425-5.422-8.93-14.955-15.414-22.716-6.36-7.61-15.008-12.594-19.481-19.208-2.553-3.972-3.798-7.779-5.471-12.784-3.687-11.035-5.206-13.982-11.893-23.25-7.823-10.847-8.564-13.004-9.109-26.428-.452-11.094-1.021-14.077-4.234-24.12-4.153-12.977-4.116-15.376-.42-27.811 3.124-10.512 3.592-13.706 3.343-25.155-.274-12.567.231-14.604 7.097-25.529 5.784-9.204 7.084-12.106 9.959-23.045 3.223-12.268 4.289-14.099 14.059-22.678 8.084-7.097 10.111-9.456 15.936-18.821 6.8-10.936 8.396-12.365 20.479-17.523 9.654-4.12 12.257-5.668 20.53-12.391 10.23-8.316 12.248-9.082 25.415-9.751 10.537-.535 13.416-1.098 23.087-4.299 12.683-4.195 15.028-4.198 27.72 0 9.664 3.199 12.541 3.764 23.088 4.299 13.174.669 15.184 1.438 25.415 9.751 8.227 6.686 10.802 8.24 20.531 12.392 12.083 5.159 13.677 6.587 20.477 17.523 5.821 9.359 7.846 11.718 15.937 18.822 9.771 8.579 10.836 10.412 14.059 22.678 2.872 10.931 4.17 13.833 9.958 23.043 6.86 10.916 7.37 12.954 7.097 25.528-.263 12.077.314 14.94 3.595 26.006 1.177 3.973 5.35 6.234 9.321 5.062 3.972-1.177 6.238-5.35 5.061-9.321-2.89-9.755-3.206-11.091-2.98-21.419.125-5.729.254-11.652-1.385-17.617-1.698-6.179-4.905-11.283-8.007-16.22-4.989-7.938-5.682-9.475-8.151-18.874-1.472-5.602-2.994-11.394-6.279-16.729-3.39-5.505-7.965-9.522-12.39-13.407-6.992-6.14-8.079-7.406-13.096-15.473-3.109-4.999-6.323-10.168-11.164-14.339-4.969-4.279-10.659-6.709-16.162-9.058-8.418-3.595-9.81-4.428-16.96-10.237-4.675-3.8-9.51-7.729-15.655-10.096-6.157-2.371-12.411-2.688-18.459-2.995-9.163-.467-10.735-.779-19.137-3.56-5.539-1.831-11.812-3.906-18.576-3.906s-13.037 2.075-18.572 3.907c-8.416 2.783-9.975 3.092-19.136 3.559-6.048.307-12.302.624-18.458 2.995-6.145 2.366-10.979 6.295-15.655 10.095-7.136 5.8-8.538 6.641-16.96 10.237-5.502 2.349-11.193 4.778-16.161 9.058-4.842 4.17-8.057 9.34-11.166 14.339-5.028 8.084-6.112 9.339-13.095 15.472-4.425 3.886-9.001 7.903-12.39 13.408-3.286 5.336-4.808 11.128-6.279 16.729-2.472 9.401-3.163 10.936-8.152 18.875-3.102 4.937-6.31 10.041-8.007 16.22-1.639 5.966-1.51 11.89-1.385 17.618.215 9.865-.046 11.543-2.724 20.555-1.651 5.554-3.357 11.296-3.357 17.677 0 6.887 2.056 13.311 3.869 18.979 2.816 8.801 3.141 10.502 3.533 20.158.247 6.082.503 12.371 2.677 18.595 2.146 6.143 5.76 11.153 9.255 15.998 5.778 8.012 6.621 9.62 9.831 19.229 1.128 3.374 2.279 6.817 3.807 10.174-8.213 7.788-15.942 16.161-23.029 24.953-3.996 4.957-.366 12.207 5.834 12.207 2.19 0 4.362-.955 5.843-2.793 6.183-7.67 12.885-15.001 19.987-21.868 5.228 5.33 11.305 9.492 15.226 14.184 5.534 6.624 8.998 16.388 16.321 23.707 7.764 7.76 17.405 11.05 23.646 16.332.537.453-2.257-1.412 43.944 28.854 7.24 4.743 15.298 7.648 23.542 8.715v98.832h-109.774v-59.247c0-4.143-3.358-7.5-7.5-7.5s-7.5 3.357-7.5 7.5v59.247h-79.942l14.114-67.534c5.406-25.865 14.987-50.498 28.476-73.215 2.115-3.562.942-8.163-2.62-10.278-3.559-2.113-8.162-.941-10.278 2.62-14.335 24.141-24.517 50.318-30.261 77.805l-15.626 74.769c-1.17 5.599 3.113 10.833 8.804 10.833zm295.295-387.811c3.636 10.379 5.063 21.262 4.241 32.412l-.855 11.614-1.987-1.987c-12.719-12.719-20.979-28.71-23.992-46.075 7.545 3.41 15.428 3.058 22.593 4.036zm-146.157-.588c13.74-1.171 17.748-2.567 29.362-11.816 10.498-8.358 11.996-8.779 25.361-4.919 13.416 3.875 17.497 3.876 30.912-.001 5.148-1.486 10.012-2.89 13.846-2.118 1.208.244 2.447.755 3.715 1.448l-6.764 6.764c-23.742 23.742-55.309 36.817-88.885 36.817h-17.807c.079-8.768 1.573-17.337 4.464-25.586 1.845-.253 3.8-.419 5.796-.589zm-4.059 114.188-5.377-73.014h16.983c37.583 0 72.917-14.636 99.492-41.211l1.612-1.612c3.421 20.692 13.174 39.758 28.299 54.884l11.138 11.138-3.668 49.815c-1.665 22.597-19.149 39.06-29.424 46.862-16.878 12.816-35.063 18.654-44.816 18.654s-27.938-5.838-44.815-18.654c-10.275-7.802-27.76-24.265-29.424-46.862zm82.025 160.3c8.044-1.126 15.9-4.006 22.97-8.638l43.211-28.308c1.461-.954 1.103-1.422 9.887-6.559 13.737-8.029 16.981-11.592 24.425-24.309 5.418-9.254 6.645-10.676 14.406-17.341 2.424-2.081 4.893-4.202 7.21-6.565 34.612 33.406 58.033 75.802 67.917 123.094l14.115 67.537h-79.941v-59.247c0-4.143-3.358-7.5-7.5-7.5s-7.5 3.357-7.5 7.5v59.247h-79.32v-76.288c0-4.143-3.358-7.5-7.5-7.5s-7.5 3.357-7.5 7.5v76.288h-14.879v-98.911z"/><path d="m243.561 189.066c4.142 0 7.5-3.357 7.5-7.5s-3.358-7.5-7.5-7.5h-37.22c-4.142 0-7.5 3.357-7.5 7.5s3.358 7.5 7.5 7.5z"/><path d="m248.499 230.948c0 4.143 3.358 7.5 7.5 7.5 10.994 0 19.938-8.944 19.938-19.938v-24.506c0-2.723 2.215-4.938 4.938-4.938h24.782c4.142 0 7.5-3.357 7.5-7.5s-3.358-7.5-7.5-7.5h-24.782c-10.994 0-19.938 8.944-19.938 19.938v24.506c0 2.723-2.215 4.938-4.938 4.938-4.142 0-7.5 3.358-7.5 7.5z"/><path d="m283.096 256.471c-.097.063-9.902 6.224-27.096 6.224-17.043 0-26.826-6.054-27.091-6.221-3.443-2.255-8.068-1.312-10.352 2.121-2.294 3.448-1.359 8.104 2.089 10.398.534.355 13.33 8.701 35.354 8.701 22.023 0 34.819-8.346 35.354-8.701 3.448-2.295 4.41-6.968 2.115-10.416s-6.924-4.399-10.373-2.106z"/></g></svg>